<svg height="500pt" viewBox="0 -14 500.82501 500" width="500pt" xmlns="http://www.w3.org/2000/svg"><path d="m272.261719 282.0625h158.117187c23.035156 0 41.707032 18.675781 41.699219 41.710938v92.007812c0 11.859375 9.113281 21.722656 20.933594 22.660156h-143.613281c-23.03125.007813-41.703126-18.664062-41.699219-41.699218v-77.929688c0-19.785156-15.667969-36.019531-35.4375-36.71875zm0 0" fill="#f8ec7d"/><path d="m184.78125 375.074219c.855469-1.300781 1.550781-2.699219 2.058594-4.171875l21.03125-71.691406h-50.292969v-292.796876c12.382813 0 12.382813 8.339844 24.761719 8.339844s12.371094-8.339844 24.75-8.339844 12.378906 8.339844 24.761718 8.339844c12.378907 0 12.378907-8.339844 24.757813-8.339844s12.378906 8.339844 24.761719 8.339844c12.378906 0 12.378906-8.339844 24.757812-8.339844 12.382813 0 12.382813 8.339844 24.769532 8.339844 12.390624 0 12.382812-8.339844 24.761718-8.339844v275.648438h-83.398437v.03125c-.433594-.019531-.871094-.03125-1.3125-.03125-20.289063.011719-36.738281 16.457031-36.75 36.75v18.769531c.007812 4.492188-.777344 8.949219-2.320313 13.171875-5.417968 14.808594-19.898437 24.359375-35.667968 24.359375h-11.371094zm0 0" fill="#f8ec7d"/><path d="m207.871094 299.210938-21.03125 71.691406c-.507813 1.472656-1.203125 2.871094-2.058594 4.171875-.101562.160156-.210938.316406-.320312.476562-3.523438 5.019531-9.269532 8.003907-15.402344 8h-115.929688l-13.347656-84.277343.367188-.0625zm0 0" fill="#6fe3ff"/><path d="m184.839844 375.113281h11.371094c15.769531 0 30.25-9.550781 35.667968-24.359375 1.542969-4.222656 2.328125-8.679687 2.320313-13.171875v-18.769531c.011719-20.292969 16.460937-36.738281 36.75-36.75.441406 0 .878906.011719 1.3125.03125 19.769531.699219 35.4375 16.933594 35.4375 36.71875v57h-122.878907l-.359374-.261719c.109374-.160156.21875-.316406.320312-.476562zm0 0" fill="#e2d574"/><path d="m173.25 449.914062c0 9.496094-7.699219 17.199219-17.199219 17.199219s-17.199219-7.703125-17.199219-17.199219c0-9.5 7.699219-17.203124 17.199219-17.203124s17.199219 7.703124 17.199219 17.203124zm0 0" fill="#f8ec7d"/><path d="m78.640625 467.113281c-9.5.003907-17.207031-7.695312-17.210937-17.195312-.003907-9.5 7.695312-17.203125 17.195312-17.207031 9.503906 0 17.203125 7.699218 17.203125 17.203124 0 9.492188-7.691406 17.191407-17.1875 17.199219zm0 0" fill="#f8ec7d"/><g fill="#63316d"><path d="m494.820312 432.441406h-1.484374c-8.621094-.789062-15.226563-8.003906-15.257813-16.660156v-92.007812c-.023437-26.335938-21.363281-47.679688-47.699219-47.710938h-68.71875v-269.648438c0-3.316406-2.6875-6-6-6-8.023437 0-12.300781 2.878907-15.730468 5.191407-2.8125 1.894531-4.671876 3.148437-9.03125 3.148437-4.355469 0-6.222657-1.253906-9.039063-3.148437-3.433594-2.3125-7.710937-5.191407-15.730469-5.191407-8.019531 0-12.300781 2.878907-15.730468 5.191407-2.8125 1.894531-4.671876 3.148437-9.027344 3.148437-4.359375 0-6.21875-1.253906-9.027344-3.148437-3.4375-2.3125-7.710938-5.191407-15.734375-5.191407s-12.300781 2.878907-15.730469 5.191407c-2.8125 1.894531-4.671875 3.148437-9.027344 3.148437-4.359374 0-6.214843-1.253906-9.03125-3.148437-3.433593-2.3125-7.707031-5.191407-15.730468-5.191407-8.023438 0-12.300782 2.878907-15.734375 5.199219-2.808594 1.890625-4.664063 3.144531-9.015625 3.144531-4.351563 0-6.214844-1.253906-9.027344-3.148437-3.433594-2.3125-7.710938-5.191406-15.734375-5.191406-3.3125 0-6 2.683593-6 6v286.796875h-106.683594l-1.769531-11.167969c-1.863281-12.082031-12.28125-20.980469-24.503906-20.933594h-12.621094c-3.3125 0-6 2.683594-6 6 0 3.3125 2.6875 6 6 6h12.621094c6.308594-.023437 11.6875 4.570313 12.652344 10.808594l17.910156 113.082031c1.855468 12.085938 12.28125 20.992188 24.507812 20.9375h110.660156c3.3125 0 6-2.683594 6-6 0-3.3125-2.6875-6-6-6h-110.660156c-6.3125.03125-11.695312-4.566406-12.65625-10.808594l-.882812-5.582031h108.90625c6.804687-.003906 13.308594-2.804687 17.992187-7.738281h114.648438v14.929688c-.003907 26.347656 21.355469 47.707031 47.699219 47.699218h143.425781c.621093.050782 1.261719.082032 2 .082032 3.328125-.039063 6.007812-2.75 6-6.082032 0-3.316406-2.6875-6-6.003907-6zm-331.242187-418.753906c1.050781.5625 2.0625 1.1875 3.03125 1.875 3.4375 2.3125 7.710937 5.191406 15.734375 5.191406s12.289062-2.878906 15.722656-5.191406c2.8125-1.894531 4.667969-3.148438 9.027344-3.148438s6.214844 1.25 9.023438 3.148438c3.4375 2.3125 7.710937 5.191406 15.734374 5.191406 8.019532 0 12.296876-2.878906 15.730469-5.191406 2.8125-1.894531 4.671875-3.148438 9.027344-3.148438 4.359375 0 6.214844 1.253907 9.027344 3.148438 3.4375 2.3125 7.710937 5.191406 15.734375 5.191406 8.019531 0 12.300781-2.878906 15.730468-5.191406 2.8125-1.894531 4.671876-3.148438 9.027344-3.148438 4.359375 0 6.214844 1.253907 9.027344 3.148438 3.4375 2.3125 7.714844 5.191406 15.742188 5.191406 8.03125 0 12.300781-2.878906 15.734374-5.191406.96875-.6875 1.980469-1.3125 3.027344-1.871094v262.371094h-77.398437c-.140625 0-.277344.011719-.414063.019531-.300781-.007812-.601562-.019531-.902344-.019531-23.605468.011719-42.738281 19.144531-42.75 42.75v18.769531c.007813 3.789063-.652343 7.550781-1.953124 11.109375-4.46875 12.214844-16.539063 20.421875-30.035157 20.421875h-2.59375l20.011719-68.210937c.53125-1.816406.179688-3.773438-.953125-5.285156-1.132813-1.515626-2.914063-2.40625-4.804687-2.40625h-44.289063zm5.480469 363.863281h-110.804688l-11.457031-72.339843h153.058594l-18.726563 63.84375c-.339844.953124-.792968 1.859374-1.347656 2.703124-.027344.039063-.054688.082032-.082031.125-.054688.089844-.117188.179688-.148438.226563-2.402343 3.414063-6.316406 5.445313-10.492187 5.441406zm56.871094-7.738281c5.199218-4.628906 9.179687-10.464844 11.585937-17 1.78125-4.878906 2.691406-10.035156 2.683594-15.230469v-18.769531c.011719-16.976562 13.773437-30.738281 30.75-30.75.347656 0 .6875.007812 1.101562.027344 16.574219.515625 29.71875 14.140625 29.648438 30.722656v51zm98.226562 52.179688c-6.714844-6.683594-10.480469-15.777344-10.457031-25.25v-77.929688c.039062-11.585938-4.640625-22.683594-12.957031-30.75h129.636718c19.710938.023438 35.683594 16 35.699219 35.710938v92.007812c.007813 5.980469 1.886719 11.808594 5.378906 16.660156h-122.058593c-9.472657.023438-18.558594-3.738281-25.242188-10.449218zm0 0"/><path d="m217.410156 87.300781h103.609375c3.3125 0 6-2.683593 6-6 0-3.3125-2.6875-6-6-6h-103.609375c-3.3125 0-6 2.6875-6 6 0 3.316407 2.6875 6 6 6zm0 0"/><path d="m197.378906 75.300781h-5.160156c-3.3125 0-6 2.6875-6 6 0 3.316407 2.6875 6 6 6h5.160156c3.316406 0 6-2.683593 6-6 0-3.3125-2.683594-6-6-6zm0 0"/><path d="m217.410156 127.203125h103.609375c3.3125 0 6-2.6875 6-6s-2.6875-6-6-6h-103.609375c-3.3125 0-6 2.6875-6 6s2.6875 6 6 6zm0 0"/><path d="m197.378906 115.203125h-5.160156c-3.3125 0-6 2.6875-6 6s2.6875 6 6 6h5.160156c3.316406 0 6-2.6875 6-6s-2.683594-6-6-6zm0 0"/><path d="m217.410156 167.101562h103.609375c3.3125 0 6-2.683593 6-6 0-3.3125-2.6875-6-6-6h-103.609375c-3.3125 0-6 2.6875-6 6 0 3.316407 2.6875 6 6 6zm0 0"/><path d="m197.378906 155.101562h-5.160156c-3.3125 0-6 2.6875-6 6 0 3.316407 2.6875 6 6 6h5.160156c3.316406 0 6-2.683593 6-6 0-3.3125-2.683594-6-6-6zm0 0"/><path d="m217.410156 206.992188h103.609375c3.3125 0 6-2.6875 6-6s-2.6875-6-6-6h-103.609375c-3.3125 0-6 2.6875-6 6s2.6875 6 6 6zm0 0"/><path d="m197.378906 194.992188h-5.160156c-3.3125 0-6 2.6875-6 6s2.6875 6 6 6h5.160156c3.316406 0 6-2.6875 6-6s-2.683594-6-6-6zm0 0"/><path d="m217.410156 242.28125h103.609375c3.3125 0 6-2.683594 6-6 0-3.3125-2.6875-6-6-6h-103.609375c-3.3125 0-6 2.6875-6 6 0 3.316406 2.6875 6 6 6zm0 0"/><path d="m197.378906 230.28125h-5.160156c-3.3125 0-6 2.6875-6 6 0 3.316406 2.6875 6 6 6h5.160156c3.316406 0 6-2.683594 6-6 0-3.3125-2.683594-6-6-6zm0 0"/><path d="m358.441406 331.210938c5.582032.011718 10.105469 4.539062 10.109375 10.121093 0 3.3125 2.683594 6 6 6 3.3125 0 6-2.6875 6-6-.011719-9.898437-6.589843-18.585937-16.109375-21.285156v-3.683594c0-3.316406-2.6875-6-6-6-3.316406 0-6 2.683594-6 6v3.683594c-10.640625 2.988281-17.4375 13.371094-15.925781 24.316406 1.515625 10.945313 10.875 19.09375 21.925781 19.082031 5.585938-.011718 10.125 4.503907 10.136719 10.089844.011719 5.585938-4.503906 10.125-10.089844 10.140625-.015625 0-.03125 0-.046875 0-.019531 0-.035156 0-.050781 0-5.566406-.035156-10.066406-4.554687-10.070313-10.125 0-3.3125-2.6875-6-6-6s-6 2.6875-6 6c.011719 9.902344 6.59375 18.589844 16.121094 21.289063v4.414062c0 3.3125 2.683594 6 6 6 3.3125 0 6-2.6875 6-6v-4.414062c10.632813-2.992188 17.429688-13.375 15.914063-24.316406-1.511719-10.945313-10.867188-19.089844-21.914063-19.085938-5.585937 0-10.117187-4.527344-10.117187-10.113281 0-5.585938 4.53125-10.117188 10.117187-10.117188zm0 0"/><path d="m433.929688 384.042969h-26.679688c-3.3125 0-6 2.6875-6 6s2.6875 6 6 6h26.679688c3.3125 0 6-2.6875 6-6s-2.6875-6-6-6zm0 0"/><path d="m433.929688 351.8125h-26.679688c-3.3125 0-6 2.6875-6 6s2.6875 6 6 6h26.679688c3.3125 0 6-2.6875 6-6s-2.6875-6-6-6zm0 0"/><path d="m433.929688 319.574219h-26.679688c-3.3125 0-6 2.683593-6 6 0 3.3125 2.6875 6 6 6h26.679688c3.3125 0 6-2.6875 6-6 0-3.316407-2.6875-6-6-6zm0 0"/><path d="m78.640625 473.113281c12.8125 0 23.199219-10.386719 23.199219-23.199219 0-12.816406-10.386719-23.203124-23.199219-23.203124s-23.199219 10.386718-23.199219 23.203124c.011719 12.808594 10.390625 23.1875 23.199219 23.199219zm0-34.402343c6.183594 0 11.199219 5.015624 11.199219 11.203124 0 6.183594-5.015625 11.199219-11.199219 11.199219-6.1875 0-11.199219-5.015625-11.199219-11.199219.003906-6.183593 5.015625-11.195312 11.199219-11.203124zm0 0"/><path d="m156.050781 473.113281c12.8125 0 23.199219-10.386719 23.199219-23.199219 0-12.816406-10.386719-23.203124-23.199219-23.203124s-23.199219 10.386718-23.199219 23.203124c.011719 12.804688 10.390626 23.183594 23.199219 23.199219zm0-34.402343c6.183594 0 11.199219 5.015624 11.199219 11.203124 0 6.183594-5.015625 11.199219-11.199219 11.199219-6.1875 0-11.199219-5.015625-11.199219-11.199219.007813-6.183593 5.015626-11.195312 11.199219-11.203124zm0 0"/></g></svg>