<?xml version="1.0" encoding="iso-8859-1"?>
<!-- Generator: Adobe Illustrator 19.0.0, SVG Export Plug-In . SVG Version: 6.00 Build 0)  -->
<svg xmlns="http://www.w3.org/2000/svg" xmlns:xlink="http://www.w3.org/1999/xlink" version="1.1" id="Capa_1" x="0px" y="0px" viewBox="0 0 512.002 512.002" style="enable-background:new 0 0 512.002 512.002;" xml:space="preserve" width="512" height="512">
<g>
	<path d="M502.684,109.504l-44.8-27.89c-0.563-0.35-1.169-0.616-1.798-0.806c-0.013-0.004-0.025-0.01-0.037-0.013   c-0.237-0.07-0.479-0.117-0.721-0.163c-0.091-0.017-0.179-0.043-0.27-0.057c-0.211-0.032-0.424-0.043-0.638-0.058   c-0.126-0.009-0.25-0.024-0.376-0.026c-0.041-0.001-0.082-0.009-0.123-0.009h-33.507c-3.225-16.773-18.004-29.486-35.704-29.486   H371.45V36.371c0-4.142-3.358-7.5-7.5-7.5s-7.5,3.358-7.5,7.5v14.624h-61.087V36.371c0-4.142-3.358-7.5-7.5-7.5s-7.5,3.358-7.5,7.5   v14.624h-61.087V36.371c0-4.142-3.358-7.5-7.5-7.5s-7.5,3.358-7.5,7.5v14.624h-61.087V36.371c0-4.142-3.358-7.5-7.5-7.5   s-7.5,3.358-7.5,7.5v14.624H86.064c-4.142,0-7.5,3.358-7.5,7.5v21.986H20.07c-7.99,0-14.884,4.708-18.111,11.486   C0.716,94.575,0,97.481,0,100.557v5.486c0,4.142,3.358,7.5,7.5,7.5s7.5-3.358,7.5-7.5v-5.482c0-0.808,0.207-1.563,0.543-2.241   c0.83-1.672,2.539-2.835,4.529-2.835h21.615c-0.423,1.621-0.649,3.321-0.649,5.072v51.453c0,1.751,0.225,3.45,0.649,5.071H20.07   c-0.699,0-1.365-0.142-1.971-0.399c-0.016-0.007-0.03-0.018-0.046-0.025c-0.285-0.124-0.559-0.27-0.814-0.443   C15.889,155.302,15,153.758,15,152.01v-15.967c0-4.142-3.358-7.5-7.5-7.5s-7.5,3.358-7.5,7.5v15.967v0v0   c0,6.917,3.517,13.028,8.857,16.638c0.428,0.289,0.876,0.55,1.326,0.807c0.111,0.063,0.215,0.138,0.328,0.199   c2.844,1.547,6.102,2.427,9.561,2.427h41.039c0.007,0,0.013-0.001,0.019-0.001h17.434v192.692c0,4.142,3.358,7.5,7.5,7.5   s7.5-3.358,7.5-7.5V65.995h34.625v14.624c0,4.142,3.358,7.5,7.5,7.5s7.5-3.358,7.5-7.5V65.995h61.087v14.624   c0,4.142,3.358,7.5,7.5,7.5s7.5-3.358,7.5-7.5V65.995h61.087v14.624c0,4.142,3.358,7.5,7.5,7.5s7.5-3.358,7.5-7.5V65.995h61.087   v14.624c0,4.142,3.358,7.5,7.5,7.5s7.5-3.358,7.5-7.5V65.995h13.258c11.781,0,21.365,9.584,21.365,21.365v0.544   c0,0.026-0.004,0.051-0.004,0.077s0.004,0.051,0.004,0.077v76.445c0,0.026-0.004,0.051-0.004,0.077s0.004,0.051,0.004,0.077v46.386   c0,4.142,3.358,7.5,7.5,7.5s7.5-3.358,7.5-7.5v-38.964H453.9c0.005,0,0.01,0.001,0.016,0.001c0.348,0,0.696-0.025,1.042-0.073   c0.105-0.015,0.206-0.046,0.309-0.065c0.236-0.043,0.472-0.083,0.704-0.149c0.219-0.062,0.43-0.149,0.643-0.231   c0.111-0.043,0.225-0.073,0.334-0.121c0.322-0.142,0.634-0.306,0.935-0.493l44.801-27.881c5.835-3.633,9.319-9.907,9.318-16.782   C512.002,119.41,508.519,113.137,502.684,109.504z M61.101,157.081c-2.792-0.005-5.063-2.278-5.063-5.071v-51.453   c0-2.797,2.275-5.072,5.072-5.072c0.026,0,0.051-0.004,0.077-0.004h17.376v61.6H61.101z M497,126.284   c0,0.796-0.219,2.783-2.247,4.046c0,0,0,0,0,0l-33.336,20.75v-49.592l33.336,20.75C496.781,123.501,497,125.488,497,126.284z    M421.074,95.481h25.343v61.6h-25.343V95.481z"/>
	<path d="M413.574,233.545c-4.142,0-7.5,3.358-7.5,7.5v144.188h-75.398c-4.142,0-7.5,3.358-7.5,7.5v75.398H114.93   c-11.781,0-21.365-9.584-21.365-21.365v-51.992c0-4.142-3.358-7.5-7.5-7.5s-7.5,3.358-7.5,7.5v51.992   c0,20.052,16.313,36.365,36.365,36.365h215.746c0.031,0,0.061-0.004,0.091-0.004c0.215-0.003,0.429-0.011,0.642-0.032   c0.116-0.011,0.23-0.034,0.345-0.051c0.127-0.019,0.254-0.032,0.38-0.057c0.121-0.024,0.24-0.059,0.36-0.089   c0.117-0.029,0.235-0.053,0.35-0.088c0.113-0.034,0.223-0.079,0.334-0.118c0.119-0.042,0.24-0.08,0.357-0.128   c0.099-0.041,0.193-0.091,0.291-0.136c0.125-0.058,0.252-0.112,0.374-0.177c0.092-0.049,0.178-0.107,0.268-0.159   c0.122-0.072,0.246-0.139,0.364-0.218c0.101-0.067,0.196-0.144,0.294-0.217c0.1-0.074,0.204-0.143,0.301-0.223   c0.192-0.157,0.377-0.324,0.554-0.501l82.899-82.898c0.003-0.003,0.006-0.007,0.009-0.011c0.232-0.233,0.441-0.484,0.639-0.743   c0.052-0.068,0.103-0.136,0.152-0.206c0.188-0.264,0.364-0.534,0.515-0.819c0.01-0.02,0.018-0.04,0.028-0.06   c0.14-0.269,0.259-0.547,0.366-0.831c0.03-0.08,0.059-0.16,0.086-0.241c0.102-0.302,0.192-0.609,0.255-0.924   c0.002-0.012,0.003-0.024,0.005-0.036c0.059-0.303,0.093-0.611,0.115-0.921c0.006-0.089,0.01-0.177,0.013-0.267   c0.003-0.082,0.012-0.163,0.012-0.245V241.045C421.074,236.903,417.716,233.545,413.574,233.545z M338.175,400.233h57.292   l-57.292,57.292V400.233z"/>
	<path d="M151.187,174.766c1.464,1.464,3.384,2.197,5.303,2.197s3.839-0.732,5.303-2.197l27.607-27.607   c2.929-2.929,2.929-7.678,0-10.606c-2.929-2.929-7.678-2.929-10.606,0l-22.304,22.304l-9.53-9.53   c-2.929-2.929-7.678-2.929-10.606,0c-2.929,2.929-2.929,7.678,0,10.606L151.187,174.766z"/>
	<path d="M247.347,145.512h105.072c4.142,0,7.5-3.358,7.5-7.5s-3.358-7.5-7.5-7.5H247.347c-4.142,0-7.5,3.358-7.5,7.5   S243.205,145.512,247.347,145.512z"/>
	<path d="M247.347,180.806h37.084c4.142,0,7.5-3.358,7.5-7.5s-3.358-7.5-7.5-7.5h-37.084c-4.142,0-7.5,3.358-7.5,7.5   S243.205,180.806,247.347,180.806z"/>
	<path d="M136.354,265.21l14.833,14.834c1.406,1.407,3.314,2.197,5.303,2.197s3.897-0.79,5.303-2.197l27.607-27.607   c2.929-2.929,2.929-7.678,0-10.606c-2.929-2.929-7.678-2.929-10.606,0l-22.304,22.304l-9.53-9.531   c-2.929-2.93-7.678-2.929-10.606,0C133.424,257.532,133.424,262.281,136.354,265.21z"/>
	<path d="M247.347,250.79h105.072c4.142,0,7.5-3.358,7.5-7.5s-3.358-7.5-7.5-7.5H247.347c-4.142,0-7.5,3.358-7.5,7.5   S243.205,250.79,247.347,250.79z"/>
	<path d="M247.347,286.085h37.084c4.142,0,7.5-3.358,7.5-7.5s-3.358-7.5-7.5-7.5h-37.084c-4.142,0-7.5,3.358-7.5,7.5   S243.205,286.085,247.347,286.085z"/>
	<path d="M247.347,356.068h105.072c4.142,0,7.5-3.358,7.5-7.5s-3.358-7.5-7.5-7.5H247.347c-4.142,0-7.5,3.358-7.5,7.5   S243.205,356.068,247.347,356.068z"/>
	<path d="M247.347,391.363h37.084c4.142,0,7.5-3.358,7.5-7.5s-3.358-7.5-7.5-7.5h-37.084c-4.142,0-7.5,3.358-7.5,7.5   S243.205,391.363,247.347,391.363z"/>
	<path d="M162.877,399.056c18.903,0,34.283-15.379,34.283-34.283s-15.379-34.283-34.283-34.283   c-18.904,0-34.283,15.379-34.283,34.283S143.974,399.056,162.877,399.056z M162.877,345.49c10.632,0,19.283,8.65,19.283,19.283   s-8.65,19.283-19.283,19.283c-10.633,0-19.283-8.65-19.283-19.283S152.245,345.49,162.877,345.49z"/>
</g>















</svg>
